<svg xmlns="http://www.w3.org/2000/svg" width="750" viewBox="0 0 750 750" height="750" version="1.0"><defs><clipPath id="a"><path d="M 130 113.441406 L 620 113.441406 L 620 636.191406 L 130 636.191406 Z M 130 113.441406"/></clipPath></defs><g clip-path="url(#a)"><path fill="#B7A6A1" d="M 495.394531 113.367188 L 254.160156 113.367188 C 254.160156 113.367188 266.007812 231.757812 131.730469 233.730469 C 131.730469 233.730469 96.519531 571.148438 374.777344 636.261719 C 653.035156 571.148438 617.824219 233.730469 617.824219 233.730469 C 483.546875 231.757812 495.394531 113.367188 495.394531 113.367188 Z M 495.394531 113.367188"/></g><path fill="#AF5E4B" d="M 457.089844 161.367188 L 292.464844 161.367188 C 292.464844 161.367188 283.644531 253.265625 175.726562 268.34375 C 175.726562 268.34375 155.28125 528.421875 374.777344 588.277344 C 594.273438 528.417969 573.828125 268.34375 573.828125 268.34375 C 465.910156 253.265625 457.089844 161.367188 457.089844 161.367188 Z M 457.089844 161.367188"/><path fill="#C6715A" d="M 457.089844 161.367188 L 374.777344 161.367188 L 374.777344 373.992188 L 564.894531 373.992188 C 572.511719 339.167969 575.488281 303.953125 573.828125 268.34375 C 465.910156 253.265625 457.089844 161.367188 457.089844 161.367188 Z M 457.089844 161.367188"/><path fill="#C6715A" d="M 374.777344 588.261719 L 374.777344 373.992188 L 184.660156 373.992188 C 201.722656 453.292969 248.601562 553.851562 374.777344 588.261719 Z M 374.777344 588.261719"/><path fill="#DCCFCA" d="M 315.992188 267.179688 C 314.292969 266.777344 312.582031 266.453125 310.851562 266.199219 C 309.125 265.945312 307.386719 265.769531 305.644531 265.667969 C 303.902344 265.566406 302.15625 265.542969 300.410156 265.59375 C 298.664062 265.644531 296.925781 265.769531 295.191406 265.972656 C 293.457031 266.175781 291.734375 266.449219 290.023438 266.804688 C 288.3125 267.15625 286.621094 267.582031 284.949219 268.078125 C 283.273438 268.578125 281.625 269.148438 280 269.792969 C 278.378906 270.433594 276.785156 271.148438 275.222656 271.929688 C 273.664062 272.710938 272.136719 273.558594 270.648438 274.472656 C 269.164062 275.386719 267.71875 276.363281 266.316406 277.402344 C 264.910156 278.441406 263.558594 279.539062 262.25 280.699219 C 260.945312 281.855469 259.691406 283.066406 258.488281 284.335938 C 257.289062 285.601562 256.144531 286.917969 255.058594 288.285156 C 253.96875 289.648438 252.945312 291.0625 251.980469 292.515625 C 251.019531 293.972656 250.121094 295.464844 249.289062 297 C 248.453125 298.535156 247.6875 300.101562 246.992188 301.699219 C 246.296875 303.300781 245.671875 304.929688 245.117188 306.582031 C 244.558594 308.238281 244.078125 309.914062 243.671875 311.609375 C 243.261719 313.308594 242.925781 315.019531 242.667969 316.742188 C 242.40625 318.46875 242.222656 320.203125 242.117188 321.945312 C 242.007812 323.6875 241.972656 325.429688 242.019531 327.175781 C 242.0625 328.917969 242.179688 330.65625 242.375 332.390625 C 242.570312 334.125 242.839844 335.847656 243.183594 337.558594 C 243.53125 339.269531 243.949219 340.960938 244.441406 342.636719 C 244.933594 344.3125 245.5 345.960938 246.136719 347.585938 C 246.773438 349.210938 247.476562 350.804688 248.253906 352.367188 C 249.027344 353.933594 249.871094 355.460938 250.777344 356.949219 C 251.6875 358.441406 252.660156 359.886719 253.695312 361.292969 C 254.730469 362.699219 255.824219 364.058594 256.976562 365.367188 C 258.128906 366.679688 259.335938 367.9375 260.597656 369.144531 C 261.863281 370.347656 263.175781 371.496094 264.539062 372.589844 C 265.898438 373.679688 267.308594 374.710938 268.761719 375.679688 L 293.886719 331.648438 C 292.417969 330.5 291.046875 329.246094 289.773438 327.886719 C 288.496094 326.527344 287.335938 325.078125 286.285156 323.539062 C 285.234375 322 284.308594 320.386719 283.507812 318.703125 C 282.707031 317.023438 282.042969 315.289062 281.511719 313.5 C 280.980469 311.714844 280.589844 309.898438 280.339844 308.050781 C 280.09375 306.207031 279.988281 304.351562 280.027344 302.488281 C 280.0625 300.625 280.246094 298.777344 280.570312 296.941406 C 280.898438 295.109375 281.363281 293.308594 281.964844 291.546875 C 282.570312 289.785156 283.308594 288.078125 284.175781 286.429688 C 285.042969 284.78125 286.035156 283.210938 287.148438 281.714844 C 288.261719 280.21875 289.484375 278.820312 290.8125 277.515625 C 292.144531 276.207031 293.566406 275.011719 295.082031 273.929688 C 296.597656 272.84375 298.1875 271.878906 299.851562 271.042969 C 301.515625 270.203125 303.238281 269.496094 305.011719 268.925781 C 306.785156 268.351562 308.59375 267.917969 310.433594 267.625 C 312.277344 267.335938 314.128906 267.183594 315.992188 267.179688 Z M 315.992188 267.179688"/><path fill="#DCCFCA" d="M 316.113281 267.207031 L 316.113281 267.179688 L 315.992188 267.179688 C 316.027344 267.179688 316.082031 267.207031 316.113281 267.207031 Z M 316.113281 267.207031"/><path fill="#DCCFCA" d="M 433.441406 267.207031 C 433.476562 267.207031 433.53125 267.179688 433.5625 267.179688 L 433.441406 267.179688 Z M 433.441406 267.207031"/><path fill="#DCCFCA" d="M 447.402344 265.605469 C 442.726562 265.601562 438.113281 266.132812 433.5625 267.203125 C 435.382812 267.207031 437.191406 267.347656 438.988281 267.625 C 440.789062 267.90625 442.554688 268.316406 444.292969 268.863281 C 446.027344 269.40625 447.714844 270.082031 449.347656 270.882812 C 450.984375 271.683594 452.546875 272.601562 454.042969 273.636719 C 455.539062 274.675781 456.945312 275.820312 458.269531 277.070312 C 459.589844 278.320312 460.808594 279.660156 461.929688 281.097656 C 463.046875 282.53125 464.050781 284.042969 464.941406 285.628906 C 465.828125 287.214844 466.59375 288.859375 467.234375 290.5625 C 467.875 292.265625 468.382812 294.007812 468.761719 295.785156 C 469.136719 297.566406 469.378906 299.363281 469.480469 301.179688 C 469.585938 302.996094 469.550781 304.808594 469.382812 306.617188 C 469.210938 308.429688 468.90625 310.21875 468.464844 311.980469 C 468.023438 313.746094 467.453125 315.46875 466.75 317.144531 C 466.046875 318.824219 465.222656 320.4375 464.277344 321.992188 C 463.328125 323.546875 462.269531 325.019531 461.101562 326.410156 C 459.929688 327.804688 458.660156 329.101562 457.292969 330.304688 L 483.183594 374.015625 C 484.445312 373.082031 485.667969 372.101562 486.851562 371.070312 C 488.039062 370.042969 489.179688 368.96875 490.28125 367.851562 C 491.382812 366.734375 492.4375 365.574219 493.449219 364.371094 C 494.460938 363.171875 495.421875 361.933594 496.335938 360.65625 C 497.246094 359.378906 498.109375 358.070312 498.921875 356.726562 C 499.730469 355.382812 500.488281 354.011719 501.191406 352.609375 C 501.894531 351.203125 502.539062 349.777344 503.132812 348.324219 C 503.722656 346.871094 504.253906 345.394531 504.730469 343.898438 C 505.207031 342.40625 505.621094 340.894531 505.980469 339.367188 C 506.335938 337.839844 506.632812 336.296875 506.871094 334.746094 C 507.105469 333.195312 507.28125 331.640625 507.394531 330.074219 C 507.507812 328.507812 507.5625 326.941406 507.554688 325.375 C 507.542969 323.804688 507.476562 322.238281 507.34375 320.675781 C 507.210938 319.113281 507.019531 317.554688 506.765625 316.007812 C 506.515625 314.460938 506.199219 312.925781 505.828125 311.398438 C 505.453125 309.875 505.019531 308.371094 504.527344 306.878906 C 504.039062 305.390625 503.488281 303.921875 502.882812 302.476562 C 502.273438 301.027344 501.613281 299.609375 500.894531 298.210938 C 500.175781 296.816406 499.40625 295.453125 498.582031 294.117188 C 497.757812 292.785156 496.878906 291.484375 495.953125 290.21875 C 495.027344 288.953125 494.050781 287.722656 493.027344 286.535156 C 492.003906 285.34375 490.9375 284.195312 489.824219 283.089844 C 488.710938 281.984375 487.554688 280.921875 486.359375 279.90625 C 485.164062 278.890625 483.929688 277.921875 482.65625 277.003906 C 481.382812 276.085938 480.078125 275.214844 478.738281 274.398438 C 477.398438 273.582031 476.027344 272.820312 474.625 272.109375 C 473.226562 271.398438 471.800781 270.746094 470.347656 270.148438 C 468.898438 269.546875 467.425781 269.007812 465.929688 268.523438 C 464.4375 268.042969 462.925781 267.617188 461.398438 267.253906 C 459.871094 266.886719 458.332031 266.582031 456.78125 266.339844 C 455.230469 266.09375 453.671875 265.910156 452.109375 265.789062 C 450.542969 265.664062 448.972656 265.605469 447.402344 265.605469 Z M 447.402344 265.605469"/><path fill="#595555" d="M 396.589844 297.464844 L 352.964844 298.046875 C 349.851562 298.707031 346.773438 299.5 343.726562 300.425781 C 340.683594 301.347656 337.679688 302.398438 334.726562 303.578125 C 331.769531 304.753906 328.867188 306.058594 326.023438 307.480469 C 323.179688 308.90625 320.398438 310.449219 317.6875 312.113281 C 314.972656 313.773438 312.335938 315.546875 309.773438 317.433594 C 307.210938 319.320312 304.730469 321.308594 302.339844 323.40625 C 299.945312 325.503906 297.644531 327.699219 295.441406 329.988281 C 293.234375 332.28125 291.128906 334.664062 289.125 337.132812 C 287.121094 339.605469 285.226562 342.15625 283.441406 344.789062 C 281.65625 347.421875 279.984375 350.125 278.429688 352.898438 C 276.875 355.671875 275.441406 358.507812 274.125 361.40625 C 272.8125 364.300781 271.621094 367.25 270.558594 370.246094 C 269.496094 373.242188 268.5625 376.28125 267.757812 379.359375 C 266.953125 382.433594 266.28125 385.539062 265.742188 388.675781 C 265.199219 391.808594 264.796875 394.960938 264.523438 398.128906 C 264.253906 401.296875 264.117188 404.472656 264.113281 407.652344 L 488.332031 407.652344 C 488.332031 406.03125 488.292969 404.410156 488.222656 402.792969 C 488.152344 401.175781 488.046875 399.558594 487.90625 397.945312 C 487.765625 396.332031 487.589844 394.71875 487.378906 393.113281 C 487.167969 391.507812 486.921875 389.90625 486.640625 388.3125 C 486.359375 386.714844 486.046875 385.125 485.695312 383.542969 C 485.347656 381.960938 484.964844 380.386719 484.546875 378.824219 C 484.128906 377.257812 483.679688 375.703125 483.191406 374.15625 C 482.707031 372.609375 482.191406 371.074219 481.636719 369.550781 C 481.085938 368.027344 480.503906 366.515625 479.886719 365.019531 C 479.269531 363.519531 478.617188 362.039062 477.9375 360.566406 C 477.253906 359.097656 476.542969 357.644531 475.796875 356.203125 C 475.054688 354.765625 474.277344 353.34375 473.472656 351.9375 C 472.664062 350.53125 471.828125 349.144531 470.960938 347.773438 C 470.09375 346.40625 469.199219 345.054688 468.273438 343.726562 C 467.347656 342.394531 466.394531 341.085938 465.414062 339.796875 C 464.429688 338.507812 463.421875 337.238281 462.386719 335.992188 C 461.347656 334.75 460.285156 333.527344 459.195312 332.328125 C 458.105469 331.128906 456.988281 329.953125 455.847656 328.800781 C 454.707031 327.648438 453.542969 326.523438 452.351562 325.425781 C 451.164062 324.324219 449.949219 323.25 448.710938 322.199219 C 447.476562 321.152344 446.21875 320.132812 444.9375 319.140625 C 443.65625 318.144531 442.355469 317.179688 441.03125 316.242188 C 439.710938 315.304688 438.367188 314.398438 437.003906 313.519531 C 435.644531 312.640625 434.261719 311.792969 432.863281 310.972656 C 431.464844 310.152344 430.050781 309.363281 428.617188 308.605469 C 427.183594 307.847656 425.734375 307.125 424.269531 306.429688 C 422.804688 305.734375 421.328125 305.070312 419.832031 304.4375 C 418.339844 303.808594 416.832031 303.210938 415.316406 302.644531 C 413.796875 302.078125 412.265625 301.546875 410.722656 301.046875 C 409.179688 300.546875 407.628906 300.082031 406.066406 299.648438 C 404.503906 299.21875 402.929688 298.820312 401.351562 298.457031 C 399.769531 298.089844 398.183594 297.761719 396.589844 297.464844 Z M 396.589844 297.464844"/><path fill="#B7A6A1" d="M 493.449219 407.652344 L 259.015625 407.652344 C 258.582031 407.648438 258.152344 407.691406 257.726562 407.773438 C 257.300781 407.855469 256.886719 407.980469 256.484375 408.144531 C 256.082031 408.3125 255.703125 408.515625 255.339844 408.753906 C 254.980469 408.996094 254.644531 409.269531 254.339844 409.574219 C 254.03125 409.882812 253.757812 410.214844 253.515625 410.578125 C 253.277344 410.9375 253.074219 411.320312 252.90625 411.71875 C 252.742188 412.121094 252.617188 412.535156 252.535156 412.960938 C 252.453125 413.386719 252.410156 413.816406 252.414062 414.25 L 252.414062 448.0625 C 252.414062 448.496094 252.453125 448.925781 252.539062 449.351562 C 252.625 449.773438 252.75 450.1875 252.914062 450.589844 C 253.082031 450.988281 253.285156 451.367188 253.527344 451.726562 C 253.765625 452.089844 254.039062 452.421875 254.347656 452.726562 C 254.652344 453.035156 254.988281 453.308594 255.347656 453.546875 C 255.707031 453.789062 256.089844 453.992188 256.488281 454.15625 C 256.890625 454.324219 257.300781 454.445312 257.726562 454.53125 C 258.152344 454.617188 258.582031 454.65625 259.015625 454.65625 L 493.449219 454.65625 C 493.882812 454.660156 494.3125 454.617188 494.738281 454.535156 C 495.164062 454.453125 495.574219 454.328125 495.976562 454.164062 C 496.378906 454 496.761719 453.800781 497.121094 453.558594 C 497.484375 453.320312 497.816406 453.046875 498.125 452.742188 C 498.433594 452.4375 498.707031 452.105469 498.949219 451.746094 C 499.191406 451.386719 499.398438 451.003906 499.5625 450.605469 C 499.730469 450.207031 499.859375 449.792969 499.945312 449.367188 C 500.027344 448.945312 500.074219 448.515625 500.074219 448.082031 L 500.074219 414.265625 C 500.078125 413.832031 500.039062 413.402344 499.953125 412.972656 C 499.871094 412.546875 499.746094 412.128906 499.582031 411.726562 C 499.417969 411.324219 499.214844 410.941406 498.972656 410.578125 C 498.730469 410.214844 498.453125 409.882812 498.148438 409.574219 C 497.839844 409.265625 497.503906 408.992188 497.140625 408.75 C 496.777344 408.507812 496.394531 408.304688 495.992188 408.140625 C 495.585938 407.976562 495.171875 407.851562 494.742188 407.769531 C 494.316406 407.6875 493.882812 407.648438 493.449219 407.652344 Z M 493.449219 407.652344"/><path fill="#FCC16D" d="M 389.996094 282.40625 L 359.558594 282.40625 C 359.125 282.40625 358.695312 282.449219 358.273438 282.53125 C 357.847656 282.617188 357.433594 282.742188 357.035156 282.90625 C 356.632812 283.074219 356.253906 283.277344 355.894531 283.515625 C 355.535156 283.757812 355.199219 284.03125 354.894531 284.335938 C 354.589844 284.644531 354.316406 284.976562 354.074219 285.335938 C 353.835938 285.695312 353.632812 286.078125 353.464844 286.476562 C 353.300781 286.875 353.175781 287.289062 353.089844 287.714844 C 353.007812 288.136719 352.964844 288.566406 352.964844 289 L 352.964844 463.050781 C 352.964844 464.050781 353.183594 465.003906 353.617188 465.90625 C 354.050781 466.808594 354.65625 467.570312 355.4375 468.195312 L 370.660156 480.371094 C 371.246094 480.835938 371.890625 481.195312 372.597656 481.441406 C 373.304688 481.6875 374.03125 481.8125 374.777344 481.8125 C 375.527344 481.8125 376.253906 481.6875 376.957031 481.441406 C 377.664062 481.195312 378.308594 480.835938 378.894531 480.371094 L 394.113281 468.207031 C 394.894531 467.578125 395.5 466.816406 395.933594 465.914062 C 396.367188 465.011719 396.585938 464.0625 396.585938 463.0625 L 396.585938 289 C 396.585938 288.566406 396.542969 288.136719 396.460938 287.714844 C 396.375 287.289062 396.25 286.878906 396.085938 286.476562 C 395.921875 286.078125 395.71875 285.699219 395.476562 285.339844 C 395.238281 284.976562 394.964844 284.644531 394.65625 284.339844 C 394.351562 284.03125 394.019531 283.757812 393.660156 283.519531 C 393.300781 283.277344 392.917969 283.074219 392.519531 282.910156 C 392.121094 282.742188 391.707031 282.617188 391.28125 282.535156 C 390.859375 282.449219 390.429688 282.40625 389.996094 282.40625 Z M 389.996094 282.40625"/></svg>